<?xml version="1.0" encoding="utf-8"?>
<!-- Generator: Adobe Illustrator 21.0.0, SVG Export Plug-In . SVG Version: 6.00 Build 0)  -->
<svg version="1.1" id="Layer_1" xmlns="http://www.w3.org/2000/svg" xmlns:xlink="http://www.w3.org/1999/xlink" x="0px" y="0px"
	 viewBox="0 0 19 19" style="enable-background:new 0 0 19 19;" xml:space="preserve">
<style type="text/css">
	.st0{fill:#B7BFC8;}
</style>
<g id="UrwUhy_1_">
	<g>
		<path class="st0" d="M15.6,19c-0.3,0-0.6,0-0.9,0c-4.1-0.5-7.2-2.4-9.4-4.9c-2.2-2.5-4-5.6-4.3-9.9c0-0.4,0-0.8,0-1.1
			c0.1-0.8,0.5-1.3,0.9-1.8C2.4,0.8,3.3,0,4,0c0.6,0,1.5,0.4,1.9,0.9c0.3,0.4,0.5,1.3,0.7,2C6.7,3.6,7,4.6,6.9,5.2
			c-0.1,1-1.5,1.4-1.9,2.2c1.3,3.1,3.4,5.4,6.3,7c0.7-0.4,1.3-1.6,2.3-1.6c0.4,0,0.8,0.2,1.2,0.3c0.4,0.1,0.8,0.3,1.1,0.4
			c0.6,0.2,1.6,0.5,2,1c0.4,0.5,0.6,1.4,0.5,1.9C18.3,17.4,16.6,18.6,15.6,19z"/>
	</g>
</g>
</svg>
